<svg width="103" height="64" viewBox="0 0 103 64" fill="none" xmlns="http://www.w3.org/2000/svg">
<path d="M101.783 15.6759L87.412 1.22804C86.6285 0.440333 85.5676 0 84.4628 0H59.1707C56.8688 0 55 1.87876 55 4.19295V59.807C55 62.1212 56.8688 64 59.1707 64H98.8293C101.131 64 103 62.1212 103 59.807V18.6408C103 17.5302 102.562 16.4636 101.778 15.6759H101.783ZM86.4484 46.5775H67.0012C65.658 46.5775 64.5679 45.4815 64.5679 44.1312C64.5679 42.7808 65.658 41.6849 67.0012 41.6849H86.4484C87.7916 41.6849 88.8818 42.7808 88.8818 44.1312C88.8818 45.4815 87.7916 46.5775 86.4484 46.5775ZM91.8407 36.6406H66.7433C65.4001 36.6406 64.3099 35.5447 64.3099 34.1943C64.3099 32.844 65.4001 31.748 66.7433 31.748H91.8359C93.1791 31.748 94.2692 32.844 94.2692 34.1943C94.2692 35.5447 93.1791 36.6406 91.8359 36.6406H91.8407ZM96.7512 19.2034L86.2197 19.1692C85.2123 19.1692 84.3947 18.3423 84.3947 17.3296V6.44844C84.3947 5.89068 85.0663 5.6118 85.4556 6.0081L97.2865 17.902C97.7683 18.3864 97.4228 19.2083 96.7463 19.2083L96.7512 19.2034Z" fill="white"/>
<path fill-rule="evenodd" clip-rule="evenodd" d="M19.9734 14.4196C21.0779 14.4196 21.9734 15.3151 21.9734 16.4196L21.9734 28.5678C21.9734 28.8804 22.2267 29.1338 22.5393 29.1338L34.2678 29.1338C35.6042 29.1338 36.6875 30.2171 36.6875 31.5534V31.5534C36.6875 32.8897 35.6042 33.973 34.2678 33.973L22.5393 33.973C22.2267 33.973 21.9734 34.2264 21.9734 34.539L21.9734 46.6872C21.9734 47.7917 21.0779 48.6872 19.9734 48.6872H19.1341C18.0295 48.6872 17.1341 47.7917 17.1341 46.6872L17.1341 34.539C17.1341 34.2264 16.8807 33.973 16.5681 33.973L4.83959 33.973C3.50326 33.973 2.41995 32.8897 2.41995 31.5534V31.5534C2.41995 30.2171 3.50326 29.1338 4.83959 29.1338L16.5681 29.1338C16.8807 29.1338 17.1341 28.8804 17.1341 28.5678L17.1341 16.4196C17.1341 15.3151 18.0295 14.4196 19.1341 14.4196H19.9734Z" fill="white"/>
</svg>
