<svg width="64" height="64" viewBox="0 0 64 64" fill="none" xmlns="http://www.w3.org/2000/svg">
<g clip-path="url(#clip0_82_41)">
<path d="M58.7078 9.22514H49.4322C48.0275 9.22514 46.6822 8.66331 45.6863 7.6595L42.6093 4.55817C41.6134 3.55436 40.2681 2.99252 38.8634 2.99252H25.8048C24.4 2.99252 23.0548 3.55436 22.0588 4.55817L19.9183 6.71561C18.9521 7.68946 17.6515 8.2438 16.2913 8.27377L5.17254 8.51349C2.29622 8.57341 -0.0078125 10.9481 -0.0078125 13.8472V54.6588C-0.0078125 57.6029 2.36311 59.9925 5.28402 59.9925H58.7004C61.6213 59.9925 63.9922 57.6029 63.9922 54.6588V14.5588C63.9922 11.6148 61.6213 9.22514 58.7004 9.22514H58.7078ZM32.0033 51.1605C22.9879 51.1605 15.6819 43.7967 15.6819 34.71C15.6819 25.6232 22.9879 18.2594 32.0033 18.2594C41.0188 18.2594 48.3248 25.6232 48.3248 34.71C48.3248 43.7967 41.0188 51.1605 32.0033 51.1605Z" fill="white"/>
<path d="M32.2417 44.3211C37.6354 44.3211 42.0078 39.9141 42.0078 34.4777C42.0078 29.0414 37.6354 24.6344 32.2417 24.6344C26.848 24.6344 22.4756 29.0414 22.4756 34.4777C22.4756 39.9141 26.848 44.3211 32.2417 44.3211Z" fill="white"/>
</g>
<defs>
<clipPath id="clip0_82_41">
<rect width="64" height="57" fill="white" transform="translate(0 3)"/>
</clipPath>
</defs>
</svg>
