<svg width="128" height="128" viewBox="0 0 128 128" fill="none" xmlns="http://www.w3.org/2000/svg">
<path fill-rule="evenodd" clip-rule="evenodd" d="M16.7569 11.1005C19.1001 8.75734 22.8991 8.75735 25.2422 11.1005L59.7569 45.6152C62.1001 47.9584 65.8991 47.9584 68.2422 45.6152L102.757 11.1005C105.1 8.75734 108.899 8.75734 111.242 11.1005L116.899 16.7573C119.242 19.1005 119.242 22.8995 116.899 25.2426L82.3843 59.7573C80.0412 62.1005 80.0412 65.8995 82.3843 68.2426L116.899 102.757C119.242 105.1 119.242 108.899 116.899 111.243L111.242 116.899C108.899 119.243 105.1 119.243 102.757 116.899L68.2422 82.3848C65.8991 80.0416 62.1001 80.0416 59.7569 82.3848L25.2422 116.899C22.8991 119.243 19.1001 119.243 16.7569 116.899L11.1001 111.243C8.75692 108.899 8.75692 105.1 11.1001 102.757L45.6148 68.2426C47.9579 65.8995 47.9579 62.1005 45.6148 59.7573L11.1001 25.2426C8.75692 22.8995 8.75692 19.1005 11.1001 16.7573L16.7569 11.1005Z" fill="white"/>
</svg>
