<svg width="64" height="64" viewBox="0 0 64 64" fill="none" xmlns="http://www.w3.org/2000/svg">
<path d="M54.7833 15.6759L40.412 1.22804C39.6285 0.440333 38.5676 0 37.4628 0H12.1707C9.8688 0 8 1.87876 8 4.19295V59.807C8 62.1212 9.8688 64 12.1707 64H51.8293C54.1312 64 56 62.1212 56 59.807V18.6408C56 17.5302 55.562 16.4636 54.7785 15.6759H54.7833ZM39.4484 46.5775H20.0012C18.658 46.5775 17.5679 45.4815 17.5679 44.1312C17.5679 42.7808 18.658 41.6849 20.0012 41.6849H39.4484C40.7916 41.6849 41.8818 42.7808 41.8818 44.1312C41.8818 45.4815 40.7916 46.5775 39.4484 46.5775ZM44.8407 36.6406H19.7433C18.4001 36.6406 17.3099 35.5447 17.3099 34.1943C17.3099 32.844 18.4001 31.748 19.7433 31.748H44.8359C46.1791 31.748 47.2692 32.844 47.2692 34.1943C47.2692 35.5447 46.1791 36.6406 44.8359 36.6406H44.8407ZM49.7512 19.2034L39.2197 19.1692C38.2123 19.1692 37.3947 18.3423 37.3947 17.3296V6.44844C37.3947 5.89068 38.0663 5.6118 38.4556 6.0081L50.2865 17.902C50.7683 18.3864 50.4228 19.2083 49.7463 19.2083L49.7512 19.2034Z" fill="white"/>
</svg>
