<svg width="81" height="79" viewBox="0 0 81 79" fill="none" xmlns="http://www.w3.org/2000/svg">
<path fill-rule="evenodd" clip-rule="evenodd" d="M68.8267 35.4841L43.3327 60.8333C41.7682 62.3889 39.2318 62.3889 37.6673 60.8333L12.1733 35.4842C10.6089 33.9286 10.6089 31.4066 12.1733 29.851C13.7378 28.2954 16.2742 28.2954 17.8387 29.851L36.494 48.4004L36.494 3.98324C36.494 1.78336 38.2875 1.3862e-06 40.5 1.28949e-06C42.7124 1.19278e-06 44.506 1.78336 44.506 3.98324L44.506 48.4004L63.1613 29.851C64.7258 28.2954 67.2622 28.2954 68.8267 29.851C70.3911 31.4065 70.3911 33.9286 68.8267 35.4841Z" fill="white"/>
<path fill-rule="evenodd" clip-rule="evenodd" d="M4.65584 51C6.95105 51 8.81169 52.8572 8.81169 55.1481V70.7037H72.1883V55.1481C72.1883 52.8572 74.0489 51 76.3442 51C78.6394 51 80.5 52.8572 80.5 55.1481V74.8519C80.5 77.1428 78.6394 79 76.3442 79H4.65584C2.36063 79 0.5 77.1428 0.5 74.8519V55.1481C0.5 52.8572 2.36063 51 4.65584 51Z" fill="white"/>
</svg>
