<svg width="64" height="64" viewBox="0 0 64 64" fill="none" xmlns="http://www.w3.org/2000/svg">
<path d="M21 11.1214C21 5.25535 25.9249 0.5 32 0.5V0.5C38.0751 0.5 43 5.25535 43 11.1214V30.8786C43 36.7446 38.0751 41.5 32 41.5V41.5C25.9249 41.5 21 36.7446 21 30.8786V11.1214Z" fill="white"/>
<path fill-rule="evenodd" clip-rule="evenodd" d="M12.6469 28.5C14.3848 28.5 15.7937 29.8626 15.7937 31.5435C15.7937 40.1999 23.0495 47.2174 32 47.2174C40.9505 47.2174 48.2063 40.1999 48.2063 31.5435C48.2063 29.8626 49.6152 28.5 51.3531 28.5C53.0911 28.5 54.5 29.8626 54.5 31.5435C54.5 42.5288 46.0835 51.6129 35.1469 53.0932V60.4565C35.1469 62.1374 33.738 63.5 32 63.5C30.262 63.5 28.8531 62.1374 28.8531 60.4565V53.0932C17.9165 51.6129 9.5 42.5288 9.5 31.5435C9.5 29.8626 10.9089 28.5 12.6469 28.5Z" fill="white"/>
</svg>
