<svg width="128" height="128" viewBox="0 0 128 128" fill="none" xmlns="http://www.w3.org/2000/svg">
<path fill-rule="evenodd" clip-rule="evenodd" d="M77.0811 29.113C75.3025 29.113 74.4087 26.9655 75.6621 25.7036L95.734 5.49485C96.5412 4.68216 97.8647 4.71211 98.6343 5.56048L116.967 25.7693C118.133 27.0545 117.221 29.113 115.485 29.113H104.54C103.435 29.113 102.54 30.0085 102.54 31.113V70.7478C102.54 75.8577 98.3708 80 93.2279 80H46.6677C43.7289 80 44.007 77.6329 44.007 74.713C44.007 71.7931 43.7289 69.4261 46.6677 69.4261H89.8976C91.0021 69.4261 91.8976 68.5307 91.8976 67.4261V31.113C91.8976 30.0085 91.0021 29.113 89.8976 29.113H77.0811Z" fill="white"/>
<path fill-rule="evenodd" clip-rule="evenodd" d="M49.3355 98.887C51.1076 98.887 52.0043 101.021 50.7638 102.287L30.9759 122.475C30.1668 123.301 28.8285 123.271 28.0575 122.409L9.98463 102.221C8.83138 100.933 9.74573 98.887 11.4748 98.887L22.2303 98.887C23.3349 98.887 24.2303 97.9915 24.2303 96.887L24.2303 57.2522C24.2303 52.1423 28.3446 48 33.4199 48L79.3674 48C82.2675 48 81.993 50.367 81.993 53.2869C81.993 56.2069 82.2675 58.5739 79.3674 58.5739L36.7327 58.5739C35.6281 58.5739 34.7327 59.4693 34.7327 60.5739L34.7327 96.887C34.7327 97.9915 35.6281 98.887 36.7327 98.887L49.3355 98.887Z" fill="white"/>
</svg>
